<svg xmlns="http://www.w3.org/2000/svg" viewBox="0 0 18 18"><defs><linearGradient id="a" x1="9.88" x2="11.52" y1="8.59" y2="10.23" gradientTransform="rotate(-.08 -285.46 -1454.08)" gradientUnits="userSpaceOnUse"><stop offset="0" stop-color="#86d633"/><stop offset="1" stop-color="#5e9624"/></linearGradient><linearGradient id="b" x1="6.18" x2="7.81" y1="8.59" y2="10.23" gradientUnits="userSpaceOnUse"><stop offset="0" stop-color="#86d633"/><stop offset="1" stop-color="#5e9624"/></linearGradient><linearGradient id="c" x1="2.48" x2="4.11" y1="8.59" y2="10.23" gradientUnits="userSpaceOnUse"><stop offset="0" stop-color="#86d633"/><stop offset="1" stop-color="#5e9624"/></linearGradient></defs><circle cx="12.74" cy="8.99" r="1.16" fill="url(#a)"/><circle cx="9.04" cy="9" r="1.16" fill="url(#b)"/><circle cx="5.34" cy="9" r="1.16" fill="url(#c)"/><path fill="#50e6ff" d="m6.18 13.64-.66.66a.3.3 0 0 1-.43 0L.18 9.4a.6.6 0 0 1 0-.85l.66-.66 5.34 5.32a.3.3 0 0 1 0 .43Z"/><path fill="#1490df" d="m5.42 3.7.66.67a.3.3 0 0 1 0 .43L.84 10.06l-.67-.67a.6.6 0 0 1 0-.84L5 3.7a.3.3 0 0 1 .43 0Z"/><path fill="#50e6ff" d="m17.16 7.88.66.67a.6.6 0 0 1 0 .84l-4.91 4.9a.3.3 0 0 1-.43 0l-.66-.66a.3.3 0 0 1 0-.43l5.34-5.32Z"/><path fill="#1490df" d="m17.82 9.39-.67.66-5.24-5.26a.3.3 0 0 1 0-.42l.67-.68a.3.3 0 0 1 .42 0l4.83 4.84a.6.6 0 0 1 0 .85Z"/></svg>