<svg xmlns="http://www.w3.org/2000/svg" xml:space="preserve" viewBox="0 0 100 100"><path d="m56.99 20.12-3.3-12.44c-.4-1.48-1.93-2.6-3.77-2.6-1.85 0-3.38 1.12-3.78 2.6l-3.3 12.44.05.03h-.05s-11.08 35.94-7.43 44.72l.01.03c0 .04.33 1.13.33 1.13l6.43 14.81-.01.01a1.65 1.65 0 0 1-.15 1.38l.01.01-4.13 7.57c-.2.29-.34.63-.34 1.01 0 4.2 24.73 4.4 24.73 0 0-.47-.2-.9-.52-1.2l-3.91-7.38.02-.02a1.65 1.65 0 0 1-.11-1.48s6.6-15.17 6.64-15.46l.19-.41c3.65-8.78-7.61-44.75-7.61-44.75zm-6.95 7.83c2.57 0 4.65 2.26 4.65 5.05 0 2.8-2.08 5.06-4.65 5.06-2.57 0-4.66-2.27-4.66-5.06 0-2.79 2.09-5.05 4.66-5.05zM60.4 65.7c-14.68 4.3-22.74-1.45-22.74-1.45-.47-1.06-.92-2.28-.46-3.34.56-1.3 2.22-1.75 3.64-1.68 1.42.07 2.86.48 4.26.2a4.03 4.03 0 0 0 3.27-3.52c.1-1.58-1.17-2.89-1.54-4.43-2.31-9.47 9.11-8.47 8.62-2.82-.15 1.82-2.14 3.16-2.05 4.99.07 1.4 1.48 2.35 2.85 2.7 1.36.36 2.82.35 4.1.95a4.75 4.75 0 0 1 2.7 4.18 4.76 4.76 0 0 1-2.66 4.22z"/></svg>