<svg xmlns="http://www.w3.org/2000/svg" data-name="Layer 1" viewBox="0 0 500 500"><path d="M331.64 412.64H322a97.58 97.58 0 0 0 21.82-92.32A23.79 23.79 0 0 0 321 303.09h-29.64c29.16-52.61 42.84-113.86 38-173.86a227 227 0 0 1-15.62 36.33c-9.24 16.71-21.3 31.62-32.83 46.87a230.06 230.06 0 0 0 4.72-58.4c-1.7-33.58-11.2-66.21-20.63-98.48-3.69 44.55-22.46 86.19-36.9 128.49a412.6 412.6 0 0 0-10.23 34.43 104.9 104.9 0 0 0-2.5-14.5c-2.15-8.58-5.53-16.79-8.63-25.07a404.67 404.67 0 0 1-15.3-50.9c-10.26 32-17.05 65.5-14.93 99 1.7 26.88 9.57 53.79 24.39 76.1H179a23.63 23.63 0 0 0-22.76 16.9 97.19 97.19 0 0 0 21.89 92.66h-9.77a15.91 15.91 0 0 0 0 31.81h163.28a15.91 15.91 0 0 0 0-31.81Z"/></svg>