<svg xmlns="http://www.w3.org/2000/svg" preserveAspectRatio="xMidYMid" viewBox="0 0 256 231"><defs><linearGradient id="a" x1="50%" x2="25.7%" y1="100%" y2="8.7%"><stop offset="0%" stop-color="#EB6F07"/><stop offset="100%" stop-color="#FAB743"/></linearGradient><linearGradient id="b" x1="81%" x2="40.5%" y1="83.7%" y2="29.5%"><stop offset="0%" stop-color="#D96504"/><stop offset="100%" stop-color="#D96504" stop-opacity="0"/></linearGradient><linearGradient id="c" x1="42%" x2="84%" y1="8.7%" y2="79.9%"><stop offset="0%" stop-color="#EB6F07"/><stop offset="100%" stop-color="#EB720A" stop-opacity="0"/></linearGradient><linearGradient id="d" x1="50%" x2="25.7%" y1="100%" y2="8.7%"><stop offset="0%" stop-color="#EE6F05"/><stop offset="100%" stop-color="#FAB743"/></linearGradient><linearGradient id="e" x1="-33.2%" x2="91.7%" y1="100%" y2="0%"><stop offset="0%" stop-color="#D96504" stop-opacity=".8"/><stop offset="49.8%" stop-color="#D96504" stop-opacity=".2"/><stop offset="100%" stop-color="#D96504" stop-opacity="0"/></linearGradient><linearGradient id="f" x1="50%" x2="25.7%" y1="100%" y2="8.7%"><stop offset="0%" stop-color="#FFA95F"/><stop offset="100%" stop-color="#FFEBC8"/></linearGradient><linearGradient id="g" x1="8.1%" x2="96.5%" y1="1.1%" y2="48.8%"><stop offset="0%" stop-color="#FFF" stop-opacity=".5"/><stop offset="100%" stop-color="#FFF" stop-opacity=".1"/></linearGradient><linearGradient id="h" x1="-13.7%" x2="100%" y1="104.2%" y2="46.2%"><stop offset="0%" stop-color="#FFF" stop-opacity=".5"/><stop offset="100%" stop-color="#FFF" stop-opacity=".1"/></linearGradient></defs><path fill="url(#a)" d="m66 3 30 55-28 50c-2 4-2 10 0 15l28 50-30 55c-6-3-11-8-14-13L4 131c-5-9-5-22 0-32l48-83c3-5 8-10 14-13Z"/><path fill="url(#b)" d="M68 108c-2 4-2 10 0 15l28 50-30 55c-6-3-11-8-14-13L4 131c-4-6 18-14 64-23Z" opacity=".7"/><path fill="url(#c)" d="m69 9 27 49-5 8-23-41c-7-11-18-5-31 17l2-3 13-23c3-5 8-10 14-13l3 6Z" opacity=".5"/><path fill="url(#d)" d="m204 16 48 83c5 10 5 23 0 32l-48 84c-6 10-17 16-28 16h-48l60-108c2-5 2-11 0-15L128 0h48c11 0 22 6 28 16Z"/><path fill="url(#e)" d="m174 230-48 1 58-108c2-5 2-11 0-16L126 0h11l60 107c3 5 3 11 0 16l-38 68c-12 20-7 34 15 39Z"/><path fill="url(#f)" d="M80 231c-5 0-10-1-14-3l59-107c2-4 2-8 0-11L66 3c4-2 9-3 14-3h48l60 108c2 4 2 10 0 15l-60 108H80Z"/><path fill="url(#g)" d="M184 110 122 0h6l60 108c2 4 2 10 0 15l-60 108h-6l62-110v-11Z" opacity=".6"/><path fill="url(#h)" d="M125 110 66 3l6-2 58 107c3 4 3 10 0 15L71 230l-5-2 59-107c2-3 2-8 0-11Z" opacity=".6"/></svg>