<?xml version="1.0"?>
<svg xmlns="http://www.w3.org/2000/svg" xmlns:xlink="http://www.w3.org/1999/xlink" version="1.1" xml:space="preserve" viewBox="15.9 195.03 517.98 159.08" width="517.98" height="159.08"> <desc>Created with Fabric.js 4.6.0</desc> <defs> </defs> <g transform="matrix(1.33 0 0 1.33 236.5 288)" id="eyxFzgH4NBURxfyQ0DzjR"> <path style="stroke: none; stroke-width: 1; stroke-dasharray: none; stroke-linecap: butt; stroke-dashoffset: 0; stroke-linejoin: miter; stroke-miterlimit: 4; fill: rgb(0,0,0); fill-rule: nonzero; opacity: 1;" vector-effect="non-scaling-stroke" transform=" translate(-347.68, -519.96)" d="M 500.65 495.54 C 499.2281 496.05953 497.85699999999997 496.72360000000003 496.48199999999997 497.3877 L 494.2086 498.4307 L 483.6466 503.1651 C 477.7286 505.7237 471.8536 508.2315 465.9826 510.837 L 465.9826 510.833094 C 456.7443 514.649494 447.2486 517.813594 437.5686 520.305794 L 434.6311 521.1573539999999 L 423.3611 524.2354539999999 C 421.32590000000005 524.7549839999999 419.2869 525.1807639999998 417.2517 525.6104539999999 L 414.26730000000003 526.2276439999999 L 409.8611 527.270644 C 406.5916 528.0284539999999 403.4666 528.7394439999999 400.38840000000005 529.212044 C 397.31030000000004 529.684704 393.71260000000007 529.829234 390.2044 530.016734 L 383.43100000000004 530.016734 C 380.9193 530.016734 378.41150000000005 530.3487640000001 375.94660000000005 530.3956440000001 C 368.5599 530.3956440000001 360.22360000000003 530.3956440000001 352.26660000000004 530.157364 C 348.29 530.157364 344.21580000000006 529.684704 340.23960000000005 529.3058040000001 L 334.08340000000004 528.7393940000001 L 334.09121300000004 528.735488 C 331.64591300000006 528.5987680000001 329.21231300000005 528.329238 326.79821300000003 527.930798 C 322.06381300000004 527.1261079999999 317.32551300000006 526.1768979999999 312.59121300000004 525.278498 L 304.96621300000004 524.188698 C 297.07171300000005 522.7120980000001 289.33321300000006 520.4933980000001 281.85721300000006 517.559798 C 275.46271300000006 515.048098 269.07221300000003 512.399598 262.9162130000001 509.747298 C 257.6076130000001 507.520698 252.87321300000008 505.481698 248.13521300000008 503.212098 C 242.26411300000007 500.372298 236.53321300000007 497.340998 231.70121300000008 494.735498 C 226.8692130000001 492.129998 222.22851300000008 489.57529800000003 217.77921300000008 486.872198 C 214.74801300000007 485.11829800000004 211.71671300000008 483.27449800000005 208.78311300000007 481.379998 C 204.04871300000008 478.254998 199.31041300000007 475.083098 194.81411300000008 471.907298 L 194.81020700000008 471.907298 C 191.4664070000001 469.32139800000004 186.6735070000001 469.844798 183.96620700000008 473.09089800000004 C 181.1146070000001 476.161198 181.1146070000001 480.911198 183.96620700000008 483.98189800000006 C 188.1342070000001 488.71629800000005 191.92320700000008 492.7435980000001 195.5212070000001 496.4858980000001 C 196.7985070000001 497.8100980000001 198.22040700000008 499.0913980000001 199.6423070000001 500.36869800000005 L 202.7673070000001 503.25929800000006 C 210.6814070000001 511.0483980000001 219.2363070000001 518.1612980000001 228.3413070000001 524.5212980000001 C 233.92720700000012 528.5017980000001 238.66530700000013 531.6735980000001 243.4003070000001 534.4196980000002 C 250.0292070000001 538.4938980000002 256.51730700000013 542.3766980000001 263.2443070000001 545.8336980000001 C 268.8810070000001 548.6734980000001 274.7523070000001 551.1383980000002 280.3893070000001 553.5055980000002 L 283.4674070000001 554.8297980000002 C 287.6783070000001 556.6227980000002 291.9791070000001 558.2047980000002 296.3464070000001 559.5680980000002 L 302.0769070000001 561.3688980000002 L 302.0769070000001 561.3649920000001 C 308.6589070000001 563.6735920000001 315.4719070000001 565.2633920000002 322.3929070000001 566.1032920000001 C 326.1820070000001 566.4353220000002 329.9241070000001 567.0017320000002 333.6629070000001 567.5720920000001 C 337.4051070000001 568.1385020000001 341.52620700000006 568.8025920000001 345.5499070000001 569.1814920000002 L 345.55381300000005 569.1814920000002 C 349.16711300000003 569.3689920000002 352.78431300000005 569.3689920000002 356.39781300000004 569.1814920000002 L 358.81191300000006 569.1814920000002 C 359.46816300000006 569.4822720000002 360.1791130000001 569.6424320000002 360.89781300000004 569.6541520000002 L 361.18297300000006 569.6541520000002 L 368.6165730000001 569.2752420000002 C 374.3470730000001 568.9900820000001 380.2645730000001 568.7088320000001 386.1395730000001 568.1385420000001 C 393.0770730000001 567.5838520000001 399.9835730000001 566.6815420000001 406.8345730000001 565.4393420000001 C 414.1275730000001 563.9237420000002 421.0415730000001 562.2205420000001 427.7215730000001 560.3260420000001 C 432.0770730000001 559.0955420000001 436.29187300000007 557.4354420000002 440.41257300000007 555.8729420000002 L 445.14697300000006 554.1698420000002 C 448.84227300000003 552.7479420000002 452.63137300000005 551.3300420000003 456.32297300000005 549.4354420000002 C 462.14717300000007 546.5448420000002 467.73697300000003 543.3729420000002 472.84997300000003 540.3416420000002 C 477.963273 537.3104420000002 482.322673 534.4236420000002 487.056973 531.4393420000002 L 487.056973 531.4354360000002 C 490.650773 528.9549360000002 494.09997300000003 526.2635360000002 497.38097300000004 523.3846360000002 C 502.11537300000003 519.2635360000003 506.853673 514.9080360000003 511.068973 510.8806360000002 L 511.068973 510.8845420000002 C 514.033773 507.6306420000002 514.3658730000001 502.76344200000017 511.873663 499.1385420000002 C 509.221363 495.7557420000002 504.77596300000005 494.3299420000002 500.650663 495.5408420000002 z M 490.84529999999995 516.048 L 490.84529999999995 516.044093 C 487.84529999999995 518.700293 484.68119999999993 521.169093 481.37649999999996 523.430793 C 477.25539999999995 526.321393 472.8531 529.114393 467.92749999999995 531.954193 C 463.00169999999997 534.797993 457.5054999999999 538.016693 451.77549999999997 540.766693 C 448.4161 542.372193 444.97079999999994 543.797893 441.45149999999995 545.028393 L 436.71709999999996 546.829193 C 432.64289999999994 548.391693 428.8069 549.860393 424.83009999999996 550.997193 C 418.4824 552.797993 411.6661 554.454193 404.60709999999995 555.7315930000001 C 398.08369999999996 557.1690930000001 391.49409999999995 558.2745930000001 384.85709999999995 559.0440930000001 C 379.2672999999999 559.6105030000001 373.4900999999999 559.895653 367.90409999999997 560.1338930000001 L 362.7908 560.704203 C 362.20096 560.4151430000001 361.5525 560.270613 360.8963 560.278423 L 356.1619 560.278423 C 353.0057 560.438583 349.8455 560.438583 346.6892 560.278423 C 342.9001 559.899513 339.01730000000003 559.333113 335.27520000000004 558.762823 C 331.533 558.196413 327.46270000000004 557.5792230000001 323.52920000000006 557.200323 C 317.2558000000001 556.266733 311.09920000000005 554.680823 305.15420000000006 552.462023 L 299.28310000000005 550.567523 C 295.22450000000003 549.1964230000001 291.244 547.618323 287.3491 545.833123 L 284.271 544.508923 C 278.7319 542.188623 273.048 539.7745229999999 267.744 537.075323 C 261.30260000000004 533.805823 254.95900000000003 530.020623 248.51700000000002 526.087323 C 244.1108 523.388123 239.5209 520.356823 234.07200000000003 516.6146229999999 C 225.38450000000003 510.59122299999996 217.22400000000005 503.8416229999999 209.68100000000004 496.43862299999995 C 208.54430000000005 495.30192299999993 207.36070000000004 494.2589229999999 206.22400000000005 493.16912299999996 C 205.08730000000006 492.07932299999993 203.71230000000006 490.94252299999994 202.52870000000004 489.758923 L 199.02480000000006 486.063623 L 203.75920000000005 489.141723 C 206.88420000000005 491.176923 210.00920000000005 493.07142300000004 213.23190000000005 494.91902300000004 C 217.96630000000005 497.66512300000005 222.70460000000006 500.364323 227.43890000000005 502.922923 C 232.17330000000004 505.48152300000004 238.23590000000004 508.70022300000005 244.25090000000006 511.59092300000003 C 248.98530000000005 513.958123 254.00480000000005 516.044023 259.40690000000006 518.317523 C 265.80140000000006 521.0167230000001 272.2429000000001 523.669123 278.6799000000001 526.2277230000001 C 286.71510000000006 529.3566230000001 295.0239000000001 531.7316230000001 303.49590000000006 533.329323 L 311.16780000000006 534.844923 C 315.90220000000005 535.743363 320.64050000000003 536.692623 325.37480000000005 537.497223 C 328.16780000000006 537.969883 330.91390000000007 538.208163 333.56620000000004 538.4425329999999 L 339.58180000000004 538.962063 C 343.70290000000006 539.340973 347.9646 539.7198729999999 352.2268 539.860503 C 360.5627 540.145663 369.03880000000004 540.098783 376.4728 540.098783 C 379.172 540.098783 381.8712 539.860503 384.5705 539.673003 L 391.1525 539.673003 C 394.70329999999996 539.673003 398.4455 539.340973 402.1405 538.821443 C 405.83579999999995 538.301913 409.14829999999995 537.497243 412.51149999999996 536.6886430000001 L 416.7732 535.6925530000001 L 419.613 535.1261430000001 C 421.8396 534.653483 424.0192 534.1808330000001 426.195 533.6105430000001 C 429.9841 532.6652330000002 433.7731 531.5753430000001 437.562 530.4855430000001 L 440.5464 529.6808530000001 L 440.550306 529.6847600000001 C 450.63230599999997 526.9777600000001 460.523306 523.5909600000001 470.148306 519.5477600000002 L 487.765306 511.92276000000015 L 498.327306 507.18836000000016 L 500.97960600000005 505.95786000000015 L 503.77260600000005 504.63366000000013 C 499.41710600000005 508.3250600000001 495.2023060000001 512.3016600000001 490.84260600000005 516.0436600000002 z" stroke-linecap="round"></path> </g> <g transform="matrix(1.33 0 0 1.33 474 254)" id="sBzHYbSjCrMacvZ_W5SX4"> <path style="stroke: none; stroke-width: 1; stroke-dasharray: none; stroke-linecap: butt; stroke-dashoffset: 0; stroke-linejoin: miter; stroke-miterlimit: 4; fill: rgb(0,0,0); fill-rule: nonzero; opacity: 1;" vector-effect="non-scaling-stroke" transform=" translate(-525.17, -494.4)" d="M 555.96 451.35 C 550.8272000000001 450.49844 545.6320000000001 450.0688 540.4290000000001 450.0727 C 531.7728000000001 450.127388 523.152 451.1274 514.714 453.0571 C 503.89000000000004 455.6587 493.5690000000001 460.0259 484.16700000000003 465.9831 C 482.68260000000004 467.0026 481.58110000000005 468.4831 481.04200000000003 470.1979 C 480.96387500000003 470.39712000000003 480.87012000000004 470.58853 480.75684 470.76821 C 480.05372 472.05731000000003 479.98731000000004 473.60411 480.58106000000004 474.94791000000004 C 481.17481000000004 476.2917100000001 482.35836000000006 477.28381 483.78806000000003 477.63541000000004 L 484.45212000000004 477.63541000000004 C 485.84272000000004 478.21354 487.35442000000006 478.44010000000003 488.85442000000006 478.29557000000005 C 490.46382000000006 478.04166000000004 492.04192000000006 477.76041000000004 493.58882000000006 477.44401000000005 C 495.42082000000005 477.06120000000004 497.2685200000001 476.79167000000007 499.13182000000006 476.63932000000005 C 504.29202000000004 476.16666000000004 509.4558200000001 475.88151000000005 514.85482 475.54952000000003 L 521.43682 475.17061 L 525.74542 475.54952000000003 L 536.9684199999999 476.49483000000004 L 536.972326 476.498736 C 538.796526 476.82295600000003 540.390326 477.932336 541.327826 479.529936 C 542.370826 480.86973600000005 542.722326 482.623736 542.2770459999999 484.264336 C 541.456736 486.701836 540.7731459999999 489.186236 540.237946 491.697936 C 539.8121659999999 493.451836 539.386386 495.154936 538.862946 496.858136 C 536.4020459999999 504.815136 534.1285459999999 512.202136 531.523146 519.354136 C 530.905956 521.248636 530.101246 523.049436 529.343446 524.8463360000001 C 528.585636 526.647136 527.968446 528.065136 527.355146 529.5807360000001 L 527.359052 529.5846420000001 C 526.921552 531.1354420000001 526.921552 532.7721420000001 527.359052 534.3229420000001 C 527.530932 536.8073420000002 529.601252 538.7331420000002 532.0934520000001 538.7252420000001 L 532.9918920000001 538.7252420000001 C 534.3238920000001 538.7916480000001 535.6520920000002 538.5494620000001 536.8746920000001 538.014302 C 538.6676920000001 537.2057120000001 540.2769920000001 536.045502 541.6129920000001 534.608102 L 545.1637920000001 530.533902 C 548.6129920000001 526.588602 551.808292 522.428402 554.7301920000001 518.076902 C 558.5973920000001 512.084702 561.8981920000001 505.744902 564.5817920000001 499.13590200000004 C 566.3434920000001 494.55000200000006 567.597392 489.78820200000007 568.3239920000001 484.92890200000005 C 569.3786920000001 479.36640200000005 569.9958920000001 473.72990200000004 570.1677920000001 468.06990200000007 C 570.195135 464.04260200000004 568.7771920000001 460.14020200000004 566.1677920000001 457.0739020000001 C 563.5622920000001 454.0075020000001 559.9411920000001 451.9762020000001 555.9607920000001 451.3512020000001 z M 559.085 483.17400000000004 C 558.49516 487.4123 557.4444000000001 491.5724 555.96 495.58400000000006 C 553.503 501.56450000000007 550.4912 507.3070000000001 546.9639000000001 512.725 C 545.1592 515.3266 543.2178000000001 517.8227 541.1397000000001 520.2094000000001 C 543.3663 513.5805 545.5928 506.8074000000001 547.8663 499.5144000000001 C 548.43271 497.6199000000001 548.9093 495.6785000000001 549.3351 493.73710000000005 C 549.76088 491.79570000000007 550.4249 489.33090000000004 551.1359 487.29570000000007 L 551.131993 487.29570000000007 C 552.506993 482.9324000000001 551.788243 478.17850000000004 549.1905929999999 474.4127000000001 C 546.682793 470.3033000000001 542.4171929999999 467.5768000000001 537.631593 467.02600000000007 L 526.361593 465.98300000000006 L 521.6271929999999 465.60409000000004 L 520.9162529999999 465.60409000000004 L 514.0959529999999 465.98300000000006 L 502.8259529999999 466.64706000000007 C 507.3220529999999 464.6782600000001 511.9821529999999 463.09236000000004 516.7479529999999 461.9126600000001 C 524.5174529999999 460.13536000000005 532.458953 459.21346000000005 540.4279529999999 459.16656000000006 C 545.0607529999999 459.1392170000001 549.6896529999999 459.51812000000007 554.2559529999999 460.29936000000004 C 558.0528529999999 460.78764 560.8497529999999 464.10016 560.6973529999999 467.92436000000004 C 560.4942329999999 473.04156000000006 559.9239129999999 478.13936 558.9903529999999 483.17436000000004 z" stroke-linecap="round"></path> </g> </svg>