<?xml version="1.0"?>
<svg version="1.1" xmlns="http://www.w3.org/2000/svg" viewBox="151.05 151.05 449.45 449.45" width="449.45" height="449.45"> <g fill="#000"> <path d="m484.93 267.08c-5.6836-5.6836-14.68-5.6836-20.363 0l-88.562 88.559-89.031-88.559c-5.6836-5.6836-14.68-5.6836-20.363 0-5.6836 5.6836-5.6836 14.68 0 20.363l89.031 88.559-88.559 89.035c-5.6836 5.6836-5.6836 14.68 0 20.363 2.8398 2.8398 6.6289 4.2617 9.9453 4.2617 3.3164 0 7.1055-1.4219 9.9453-4.2617l89.031-89.031 89.035 88.559c2.8398 2.8398 6.6289 4.2617 9.9453 4.2617 3.7891 0 7.1055-1.4219 9.9453-4.2617 5.6836-5.6836 5.6836-14.68 0-20.363l-88.559-88.562 88.559-89.031c5.6836-5.6836 5.6836-14.68 0-19.891z"></path> <path d="m471.66 151.05h-191.32c-71.039 0-129.29 58.25-129.29 129.29v190.85c0 71.512 58.25 129.29 129.29 129.29h190.85c71.512 0 129.29-58.25 129.29-129.29v-190.85c0.47266-71.039-57.777-129.29-128.82-129.29zm100.88 320.61c0 55.883-44.988 100.87-100.87 100.87l-191.33 0.003906c-55.883 0-100.87-44.988-100.87-100.87l-0.003906-191.33c0-55.883 44.988-100.87 100.87-100.87h190.85c55.883 0 100.87 44.988 100.87 100.87l0.003906 191.32z"></path> </g> </svg>