<?xml version="1.0" encoding="UTF-8"?>
<svg version="1.1" xmlns="http://www.w3.org/2000/svg" viewBox="195.43 189.5 378.88 349.3" width="378.88" height="349.3"> <g fill="#000"> <path d="m476.64 414.48h-260.47c-11.441 0-20.719 9.2773-20.719 20.719v82.875c0 11.445 9.2773 20.719 20.719 20.719h260.47c11.445 0 20.719-9.2734 20.719-20.719v-82.875c0-11.441-9.2734-20.719-20.719-20.719zm-260.47 17.758h260.47c1.6367 0 2.9609 1.3242 2.9609 2.9609v82.875c0 1.6367-1.3242 2.9609-2.9609 2.9609h-260.47c-1.6367 0-2.9609-1.3242-2.9609-2.9609v-82.875c0-1.6367 1.3242-2.9609 2.9609-2.9609z"/> <path d="m420.4 322.72c-14.711 0-26.637 11.926-26.637 26.641 0 14.711 11.926 26.637 26.637 26.637 14.715 0 26.641-11.926 26.641-26.637 0-14.715-11.926-26.641-26.641-26.641zm0 17.762c4.9062 0 8.8789 3.9727 8.8789 8.8789 0 4.9023-3.9727 8.8789-8.8789 8.8789-4.9023 0-8.8789-3.9766-8.8789-8.8789 0-4.9062 3.9766-8.8789 8.8789-8.8789z"/> <path d="m420.4 381.92c4.6172 0 8.4102 3.5195 8.8398 8.0234l0.039063 0.85547v23.68c0 4.9023-3.9727 8.8789-8.8789 8.8789-4.6133 0-8.4062-3.5195-8.8359-8.0234l-0.042969-0.85547v-23.68c0-4.9023 3.9766-8.8789 8.8789-8.8789z"/> <path d="m287.2 467.76c4.9062 0 8.8828 3.9766 8.8828 8.8789 0 4.6172-3.5234 8.4102-8.0273 8.8398l-0.85547 0.039063h-47.355c-4.9062 0-8.8789-3.9727-8.8789-8.8789 0-4.6133 3.5195-8.4062 8.0234-8.8398l0.85547-0.039063z"/> <path d="m325.68 467.76c4.9023 0 8.8789 3.9766 8.8789 8.8789 0 4.6172-3.5195 8.4102-8.0234 8.8398l-0.85547 0.039063h-2.9609c-4.9023 0-8.8789-3.9727-8.8789-8.8789 0-4.6133 3.5234-8.4062 8.0234-8.8398l0.85547-0.039063z"/> <path d="m361.2 467.76c4.9023 0 8.8789 3.9766 8.8789 8.8789 0 4.6172-3.5234 8.4102-8.0234 8.8398l-0.85547 0.039063h-2.9609c-4.9023 0-8.8789-3.9727-8.8789-8.8789 0-4.6133 3.5195-8.4062 8.0234-8.8398l0.85547-0.039063z"/> <path d="m417.44 242.81c57.211 0 103.59 46.379 103.59 103.59 0 4.9062-3.9766 8.8789-8.8789 8.8789-4.9062 0-8.8789-3.9727-8.8789-8.8789 0-47.406-38.43-85.836-85.836-85.836s-85.84 38.43-85.84 85.836c0 4.9062-3.9727 8.8789-8.8789 8.8789-4.9023 0-8.8789-3.9727-8.8789-8.8789 0-57.215 46.383-103.59 103.6-103.59z"/> <path d="m417.44 189.53c86.637 0 156.87 70.234 156.87 156.88 0 4.9062-3.9766 8.8789-8.8789 8.8789s-8.8789-3.9727-8.8789-8.8789c0-76.832-62.285-139.11-139.11-139.11-76.832 0-139.12 62.281-139.12 139.11 0 4.9062-3.9727 8.8789-8.8789 8.8789-4.9023 0-8.8789-3.9727-8.8789-8.8789 0-86.641 70.234-156.88 156.88-156.88z"/> </g> </svg>