<?xml version="1.0"?>
 <svg xmlns="http://www.w3.org/2000/svg" xmlns:xlink="http://www.w3.org/1999/xlink" version="1.1" width="79" height="80" viewBox="0 0 79 80" xml:space="preserve"> <desc>Created with Fabric.js 3.6.3</desc> <defs> </defs> <g transform="matrix(1 0 0 1 39.91 40.45)" id="symbol_2_"> <linearGradient id="SVGID_symbol_1__5" gradientUnits="userSpaceOnUse" gradientTransform="matrix(1 0 0 1 0 0)" x1="205.3238" y1="125" x2="483.0884" y2="125"> <stop offset="0%" style="stop-color:rgb(69,145,237);stop-opacity: 1"></stop> <stop offset="100%" style="stop-color:rgb(0,201,255);stop-opacity: 1"></stop> </linearGradient> <path style="stroke: none; stroke-width: 1; stroke-dasharray: none; stroke-linecap: butt; stroke-dashoffset: 0; stroke-linejoin: miter; stroke-miterlimit: 4; fill: url(#SVGID_symbol_1__5); fill-rule: nonzero; opacity: 1;" transform=" translate(-203.2, -125.05)" d="M 242.5 133.3 l -7.6 -33.2 c -0.4 -1.8 -2.1 -3.6 -3.9 -4.1 l -34.9 -10.7 c -0.5 -0.1 -1 -0.2 -1.5 -0.2 c -1.5 0 -3.1 0.6 -4 1.5 l -25 23.2 c -1.3 1.2 -2.1 3.6 -1.7 5.4 l 8.1 35.5 c 0.4 1.8 2.1 3.6 3.9 4.1 l 32.6 10 c 0.5 0.1 1 0.2 1.5 0.2 c 1.5 0 3.1 -0.6 4 -1.5 l 26.7 -24.8 C 242.2 137.5 242.9 135.1 242.5 133.3 z M 199.7 93.1 l 23.9 7.3 c 0.9 0.3 0.9 0.7 0 0.9 l -12.6 2.9 c -1 0.2 -2.3 -0.2 -2.9 -0.9 l -8.8 -9.5 C 198.6 93.2 198.8 92.9 199.7 93.1 z M 214.6 136 c 0.2 1 -0.4 1.5 -1.3 1.2 l -25.8 -7.9 c -0.9 -0.3 -1.1 -1.1 -0.4 -1.7 l 19.8 -18.4 c 0.7 -0.7 1.5 -0.4 1.7 0.5 L 214.6 136 z M 172.1 112.6 l 21 -19.5 c 0.7 -0.7 1.8 -0.6 2.5 0.1 l 10.5 11.3 c 0.7 0.7 0.6 1.8 -0.1 2.5 l -21 19.5 c -0.7 0.7 -1.8 0.6 -2.5 -0.1 L 172 115.1 C 171.4 114.4 171.4 113.3 172.1 112.6 z M 177.2 143.6 l -5.6 -24.3 c -0.2 -1 0.1 -1.1 0.8 -0.4 l 8.8 9.5 c 0.7 0.7 1 2.1 0.7 3 l -3.8 12.3 C 177.9 144.5 177.4 144.5 177.2 143.6 z M 207.9 157.7 l -27.3 -8.4 c -0.9 -0.3 -1.5 -1.3 -1.2 -2.2 l 4.5 -14.8 c 0.3 -0.9 1.3 -1.5 2.2 -1.2 l 27.3 8.4 c 0.9 0.3 1.5 1.3 1.2 2.2 l -4.5 14.8 C 209.8 157.5 208.8 158 207.9 157.7 z M 232.2 137.8 l -18.3 17 c -0.7 0.7 -1.1 0.4 -0.8 -0.5 l 3.8 -12.3 c 0.3 -0.9 1.3 -1.9 2.3 -2.1 l 12.6 -2.9 C 232.7 136.8 232.9 137.2 232.2 137.8 z M 234.2 134.2 l -15.1 3.4 c -1 0.2 -1.9 -0.4 -2.1 -1.3 l -6.4 -27.9 c -0.2 -1 0.4 -1.9 1.3 -2.1 l 15.1 -3.4 c 1 -0.2 1.9 0.4 2.1 1.3 l 6.4 27.9 C 235.7 133 235.1 134 234.2 134.2 z" stroke-linecap="round"></path> </g> </svg>