<?xml version="1.0"?>
<svg version="1.1" xmlns="http://www.w3.org/2000/svg" viewBox="168.8 168.8 414.42 414.42" width="414.42" height="414.42"> <g fill="#000"> <path d="m375.77 346.2c-3.9219 0.0625-7.6562 1.6758-10.387 4.4883-2.7344 2.8125-4.2344 6.5938-4.1836 10.516v103.6-0.003906c-0.054687 3.9609 1.4805 7.7812 4.2617 10.602 2.7812 2.8203 6.5781 4.4102 10.539 4.4102 3.9609 0 7.7578-1.5898 10.539-4.4102 2.7812-2.8203 4.3164-6.6406 4.2617-10.602v-103.6 0.003907c0.054687-4-1.5117-7.8555-4.3438-10.68-2.832-2.8281-6.6875-4.3867-10.688-4.3242z"></path> <path d="m390.8 287.2c0 8.1758-6.625 14.801-14.801 14.801-8.1719 0-14.797-6.625-14.797-14.801 0-8.1719 6.625-14.797 14.797-14.797 8.1758 0 14.801 6.625 14.801 14.797" fill-rule="evenodd"></path> <path d="m376 168.81c-114.25 0-207.19 92.938-207.19 207.19s92.938 207.19 207.19 207.19 207.19-92.938 207.19-207.19-92.938-207.19-207.19-207.19zm0 29.598c98.258 0 177.59 79.336 177.59 177.59s-79.336 177.59-177.59 177.59-177.59-79.336-177.59-177.59 79.336-177.59 177.59-177.59z"></path> </g> </svg>