<?xml version="1.0"?>
<svg version="1.1" xmlns="http://www.w3.org/2000/svg" viewBox="158.52 155.37 434.97 441.6" width="434.97" height="441.6"> <defs> <clipPath id="a"> <path d="m141 139.21h470v473.58h-470z"></path> </clipPath> </defs> <g clip-path="url(#a)"> <path transform="matrix(4.7358 0 0 4.7358 139.21 -4371)" d="m55.803 1002.4c0-1.7726 0.46933-3.5451 1.3692-5.128 0.90072-1.5829 2.2312-2.976 3.885-4.0194s3.6284-1.7363 5.7639-1.9738c2.1355-0.23755 4.4294-0.018147 6.6927 0.69203 2.2625 0.71018 4.4929 1.912 6.4997 3.5641 2.0068 1.6521 3.7893 3.7546 5.1865 6.1953 1.3973 2.4415 2.4093 5.2195 2.9282 8.1716 0.51882 2.9521 0.54439 6.0749 0.040417 9.1763-0.50397 3.1014-1.5367 6.1788-3.0593 9.0393-1.5218 2.8605-3.5328 5.5025-5.9215 7.7617-2.3887 2.2592-5.1536 4.1349-8.1312 5.5165-2.9776 1.3816-6.1656 2.2691-9.3701 2.6221-3.2053 0.35303-6.4246 0.17239-9.4666-0.50645-3.0412-0.67801-5.9025-1.8534-8.4182-3.4181-2.5157-1.5647-4.685-3.5179-6.3974-5.6979-1.7115-2.18-2.9653-4.5861-3.7192-7.0276-0.7539-2.4407-1.0088-4.9152-0.79926-7.2321 0.20951-2.317 0.8834-4.4747 1.9153-6.3116 1.0327-1.8369 2.4217-3.3513 4.0103-4.4343 1.5886-1.0838 3.3736-1.7354 5.1684-1.9169 1.7948-0.18146 3.5963 0.1064 5.2179 0.82813 1.6216 0.72173 3.0601 1.8748 4.158 3.3538s1.8534 3.282 2.1602 5.2484c0.30766 1.9664 0.16579 4.0953-0.45943 6.1961-0.62522 2.1008-1.7346 4.1728-3.287 6.0262s-3.5484 3.4866-5.8761 4.7403c-2.3277 1.2537-4.9861 2.1256-7.812 2.5116-2.8259 0.3852-5.8167 0.28292-8.7812-0.3423-2.9636-0.62522-5.8984-1.7734-8.6113-3.4049-2.7129-1.6307-5.2014-3.7439-7.3039-6.2275s-3.8165-5.3367-5.0331-8.3951c-1.2166-3.0585-1.9359-6.319-2.1173-9.5895-0.18146-3.2705 0.17322-6.5483 1.0277-9.639 0.85453-3.0906 2.2081-5.9932 3.9534-8.5428 1.7445-2.5496 3.8792-4.7436 6.2415-6.4725 2.3623-1.7288 4.9515-2.9908 7.5753-3.7447s5.2806-1.0005 7.7798-0.77452c2.4992 0.226 4.8376 0.92464 6.8544 1.9903 2.0167 1.0657 3.7093 2.4968 4.9688 4.1341 1.2595 1.6381 2.086 3.4808 2.439 5.3408 0.35303 1.86 0.23343 3.7348-0.32333 5.4365-0.55676 1.7016-1.549 3.2284-2.8712 4.4211-1.3222 1.1927-2.9727 2.0497-4.7915 2.4662-1.8188 0.41572-3.8041 0.39015-5.7681-0.11383-1.9639-0.50397-3.9031-1.4855-5.6311-2.9051s-3.2416-3.2762-4.3815-5.4604c-1.1407-2.1842-1.9062-4.6933-2.1924-7.3658s-0.091556-5.5058 0.61862-8.3077c0.71018-2.802 1.9367-5.5709 3.6375-8.1147 1.7008-2.5438 3.8759-4.8607 6.4139-6.7884 2.538-1.9276 5.4373-3.4651 8.5329-4.5028 3.0964-1.0376 6.3867-1.5763 9.6786-1.5763s6.583 0.53779 9.6786 1.5763c3.0964 1.0376 5.9957 2.5751 8.5329 4.5028 2.538 1.9276 4.7131 4.2446 6.4139 6.7884 1.7008 2.5438 2.9265 5.3127 3.6375 8.1147 0.71018 2.802 0.90484 5.6353 0.61862 8.3077s-1.0517 5.1824-2.1924 7.3658c-1.1407 2.1842-2.6543 4.0409-4.3815 5.4604-1.728 1.4195-3.6672 2.4011-5.6311 2.9051-1.9639 0.50397-3.9493 0.52954-5.7681 0.11383s-3.4692-1.2727-4.7915-2.4662c-1.3222-1.1927-2.3145-2.7195-2.8712-4.4211-0.55676-1.7016-0.67636-3.5765-0.32333-5.4365 0.35303-1.86 1.1787-3.7027 2.439-5.3408 1.2595-1.6381 2.9529-3.0692 4.9688-4.1341 2.0167-1.0657 4.3559-1.7635 6.8544-1.9903 2.4992-0.226 5.156 0.019796 7.7798 0.77452 2.6238 0.7539 5.2121 2.0159 7.5753 3.7447 2.3623 1.7288 4.497 3.9229 6.2415 6.4725 1.7445 2.5496 3.0981 5.4521 3.9534 8.5428 0.85453 3.0906 1.21 6.3685 1.0277 9.639-0.18146 3.2705-0.90072 6.531-2.1173 9.5895-1.2166 3.0577-2.9315 5.9116-5.0331 8.3951-2.1025 2.4836-4.5918 4.5968-7.3039 6.2275-2.7129 1.6307-5.6468 2.7797-8.6113 3.4049-2.9636 0.62522-5.9553 0.7275-8.7812 0.3423-2.8259-0.3852-5.4843-1.2579-7.812-2.5116-2.3277-1.2537-4.3229-2.8869-5.8761-4.7403-1.5523-1.8534-2.6617-3.9254-3.287-6.0262-0.62522-2.1008-0.76627-4.2297-0.45943-6.1961 0.30766-1.9664 1.0624-3.7695 2.1602-5.2484s2.5372-2.6329 4.158-3.3538c1.6216-0.7209 3.4231-1.0096 5.2179-0.82813 1.7948 0.18229 3.5798 0.83391 5.1684 1.9169 1.5886 1.0838 2.9785 2.5974 4.0103 4.4343 1.0327 1.8369 1.7058 3.9947 1.9153 6.3116 0.20951 2.317-0.045366 4.7915-0.79926 7.2321-0.7539 2.4415-2.0076 4.8467-3.7192 7.0276-1.7115 2.18-3.8808 4.1332-6.3974 5.6979-2.5157 1.5647-5.3771 2.7401-8.4182 3.4181s-6.2613 0.85948-9.4666 0.50645c-3.2053-0.35303-6.3925-1.2405-9.3701-2.6221-2.9776-1.3816-5.7425-3.2573-8.1312-5.5165-2.3887-2.2592-4.3988-4.9012-5.9215-7.7617-1.5218-2.8605-2.5553-5.938-3.0593-9.0393-0.50397-3.1014-0.4784-6.2242 0.040417-9.1763 0.51882-2.9521 1.5301-5.7301 2.9282-8.1716 1.3973-2.4407 3.1797-4.5432 5.1865-6.1953 2.0068-1.6521 4.2363-2.8539 6.4997-3.5641 2.2625-0.71018 4.5572-0.92959 6.6927-0.69203 2.1355 0.23755 4.111 0.93041 5.7639 1.9738 1.6538 1.0434 2.9842 2.4366 3.885 4.0194 0.89989 1.5829 1.3692 3.3546 1.3692 5.128 0 1.7726-0.46933 3.5443-1.3692 5.128-0.90072 1.5829-2.2312 2.976-3.885 4.0194s-3.6284 1.7363-5.7639 1.9738c-2.1355 0.23755-4.4294 0.018147-6.6927-0.69203-2.2625-0.71018-4.4929-1.912-6.4997-3.5641-2.0068-1.6521-3.7893-3.7546-5.1865-6.1953-1.3973-2.4415-2.4093-5.2195-2.9282-8.1716-0.51882-2.9521-0.54439-6.0749-0.040417-9.1763 0.50397-3.1014 1.5367-6.1788 3.0593-9.0393 1.5218-2.8605 3.5328-5.5025 5.9215-7.7617 2.3887-2.2592 5.1536-4.1349 8.1312-5.5165 2.9776-1.3816 6.1656-2.2691 9.3701-2.6221 3.2053-0.35303 6.4246-0.17239 9.4666 0.50645 3.0412 0.67884 5.9025 1.8534 8.4182 3.4181 2.5157 1.5647 4.685 3.5179 6.3974 5.6979 1.7115 2.18 2.9653 4.5861 3.7192 7.0276 0.7539 2.4407 1.0088 4.9152 0.79926 7.2321-0.20951 2.317-0.8834 4.4747-1.9153 6.3116-1.0327 1.8369-2.4217 3.3513-4.0103 4.4343-1.5886 1.0838-3.3736 1.7354-5.1684 1.9169-1.7948 0.18146-3.5963-0.1064-5.2179-0.82813-1.6216-0.72173-3.0601-1.8748-4.158-3.3538s-1.8534-3.282-2.1602-5.2484c-0.30766-1.9664-0.16579-4.0953 0.45943-6.1961 0.62522-2.1008 1.7346-4.1728 3.287-6.0262s3.5484-3.4866 5.8761-4.7403c2.3277-1.2537 4.9861-2.1264 7.812-2.5116 2.8259-0.3852 5.8167-0.28374 8.7812 0.3423 2.9636 0.62522 5.8984 1.7734 8.6113 3.4049 2.7129 1.6307 5.2014 3.7439 7.3039 6.2275s3.8165 5.3367 5.0331 8.3951c1.2166 3.0585 1.9359 6.319 2.1173 9.5895 0.18146 3.2705-0.17321 6.5483-1.0277 9.639-0.85453 3.0906-2.2081 5.9932-3.9534 8.5428-1.7445 2.5496-3.8792 4.7436-6.2415 6.4725-2.3623 1.7288-4.9515 2.9908-7.5753 3.7447-2.6238 0.7539-5.2806 1.0005-7.7798 0.77452-2.4992-0.226-4.8376-0.92464-6.8544-1.9903-2.0167-1.0657-3.7093-2.4968-4.9688-4.1341-1.2595-1.6381-2.086-3.4808-2.439-5.3408-0.35303-1.86-0.23343-3.7348 0.32333-5.4365 0.55676-1.7016 1.549-3.2284 2.8712-4.4211 1.3222-1.1927 2.9727-2.0497 4.7915-2.4662 1.8188-0.41572 3.8041-0.39015 5.7681 0.11383 1.9639 0.50397 3.9031 1.4855 5.6311 2.9051s3.2416 3.2762 4.3815 5.4604c1.1407 2.1842 1.9062 4.6933 2.1924 7.3666 0.28622 2.6725 0.091556 5.5058-0.61862 8.3077-0.71018 2.802-1.9367 5.5709-3.6375 8.1147-1.7008 2.5438-3.8759 4.8607-6.4139 6.7884-2.538 1.9276-5.4373 3.4651-8.5329 4.5028-3.0964 1.0376-6.3867 1.5763-9.6786 1.5763s-6.583-0.53779-9.6786-1.5763c-3.0964-1.0376-5.9957-2.5751-8.5329-4.5028-2.538-1.9276-4.7131-4.2446-6.4139-6.7884-1.7008-2.5438-2.9265-5.3127-3.6375-8.1147-0.71018-2.802-0.90484-5.6353-0.61862-8.3077 0.28622-2.6725 1.0517-5.1824 2.1924-7.3666 1.1407-2.1842 2.6543-4.0409 4.3815-5.4604 1.728-1.4195 3.6672-2.4011 5.6311-2.9051 1.9639-0.50397 3.9493-0.52954 5.7681-0.11383s3.4692 1.2735 4.7915 2.4662c1.3222 1.1927 2.3145 2.7195 2.8712 4.4211 0.55676 1.7016 0.67636 3.5765 0.32333 5.4365-0.35303 1.86-1.1787 3.7027-2.439 5.3408-1.2595 1.6381-2.9529 3.0692-4.9688 4.1341-2.0167 1.0657-4.3559 1.7635-6.8544 1.9903-2.4992 0.226-5.156-0.019796-7.7798-0.77452-2.6238-0.7539-5.2121-2.0159-7.5753-3.7447-2.3623-1.7288-4.497-3.9229-6.2415-6.4725-1.7445-2.5496-3.0981-5.4521-3.9534-8.5428-0.85453-3.0906-1.21-6.3685-1.0277-9.639 0.18146-3.2705 0.90072-6.531 2.1173-9.5895 1.2166-3.0577 2.9315-5.9116 5.0331-8.3951 2.1025-2.4836 4.5918-4.5968 7.3039-6.2275 2.7129-1.6307 5.6468-2.7797 8.6113-3.4049 2.9636-0.62522 5.9553-0.7275 8.7812-0.3423 2.8259 0.3852 5.4843 1.2579 7.812 2.5116 2.3277 1.2537 4.3229 2.8869 5.8761 4.7403 1.5523 1.8534 2.6617 3.9254 3.287 6.0262 0.62522 2.1008 0.76627 4.2297 0.45943 6.1961-0.30766 1.9664-1.0624 3.7695-2.1602 5.2484s-2.5372 2.6329-4.158 3.3538c-1.6216 0.72173-3.4231 1.0096-5.2179 0.82813-1.7948-0.18146-3.5798-0.83391-5.1684-1.9169-1.5886-1.0838-2.9785-2.5982-4.0103-4.4343-1.0327-1.8369-1.7058-3.9947-1.9153-6.3116-0.20951-2.317 0.045366-4.7915 0.79926-7.2321 0.7539-2.4407 2.0076-4.8467 3.7192-7.0276 1.7115-2.18 3.8808-4.1332 6.3974-5.6979 2.5157-1.5647 5.3771-2.7401 8.4182-3.4181 3.0412-0.67884 6.2613-0.85948 9.4666-0.50645 3.2053 0.35303 6.3925 1.2405 9.3701 2.6221 2.9776 1.3816 5.7425 3.2573 8.1312 5.5165 2.3887 2.2592 4.3988 4.9012 5.9215 7.7617 1.5218 2.8605 2.5553 5.938 3.0593 9.0393 0.50397 3.1014 0.4784 6.2242-0.040417 9.1763-0.51882 2.9521-1.5301 5.7301-2.9282 8.1716-1.3973 2.4407-3.1797 4.5432-5.1865 6.1953-2.0068 1.6521-4.2363 2.8539-6.4997 3.5641-2.2625 0.71018-4.5572 0.92959-6.6927 0.69203-2.1355-0.23755-4.111-0.93041-5.7639-1.9738-1.6538-1.0434-2.9842-2.4357-3.885-4.0194-0.90072-1.5829-1.3692-3.3546-1.3692-5.128z" fill="none" stroke="#000"></path> </g> </svg>