<?xml version="1.0" encoding="UTF-8"?>
<svg xmlns="http://www.w3.org/2000/svg" viewBox="166.68 161.95 418.62 428.1" width="418.62" height="428.1"><g fill="#000"><path d="M484.01 590.02a4.552 4.552 0 0 1-4.555-4.555l.004-180.14H272.54v180.14a4.552 4.552 0 0 1-4.554 4.555 4.552 4.552 0 0 1-4.555-4.555l.004-184.69a4.552 4.552 0 0 1 4.554-4.554h216.02a4.552 4.552 0 0 1 4.555 4.554v184.69a4.558 4.558 0 0 1-4.558 4.555z"/><path d="M508.75 590.02H243.26a4.552 4.552 0 0 1-4.555-4.555 4.552 4.552 0 0 1 4.555-4.554h265.49a4.552 4.552 0 0 1 4.555 4.554 4.558 4.558 0 0 1-4.559 4.555zM508.75 405.33h-265.4a4.552 4.552 0 0 1-4.555-4.555l.004-42.875a4.552 4.552 0 0 1 4.555-4.554h265.4a4.552 4.552 0 0 1 4.555 4.554v42.88a4.555 4.555 0 0 1-4.559 4.55zm-260.84-9.105H504.2V362.45H247.91zM319.41 527.61c-13.258 0-26.434-4.598-37.152-13.625l-17.195-14.48a4.556 4.556 0 0 1 5.871-6.973l17.195 14.48c16.293 13.723 39.328 15.29 57.336 3.887l1.094-.695c18.77-11.898 43.023-11.898 61.785 0 18.293 11.59 42.352 9.586 58.484-4.883l14.148-12.691a4.547 4.547 0 0 1 6.43.348 4.553 4.553 0 0 1-.348 6.43l-14.148 12.69c-19.156 17.191-47.707 19.566-69.438 5.79-15.812-10.017-36.238-10.017-52.043 0l-1.094.695c-9.531 6.047-20.254 9.027-30.926 9.027zM319.41 488.03c-13.258 0-26.434-4.598-37.152-13.625l-17.195-14.48a4.556 4.556 0 0 1-.547-6.422c1.625-1.902 4.485-2.18 6.418-.55l17.195 14.48c16.293 13.722 39.328 15.28 57.336 3.886l1.094-.695c18.77-11.898 43.023-11.898 61.785 0 18.293 11.59 42.352 9.586 58.484-4.883l14.148-12.691a4.54 4.54 0 0 1 6.43.348 4.553 4.553 0 0 1-.348 6.43l-14.148 12.69c-19.156 17.184-47.707 19.574-69.438 5.79-15.812-10.017-36.238-10.017-52.043 0l-1.094.695c-9.531 6.047-20.254 9.027-30.926 9.027z"/><path d="M332.93 362.45a4.568 4.568 0 0 1-4.23-2.863c-.38-.953-38.02-94.098-82.27-94.098-.258 0-.512.008-.77.008-23.348.578-45.176 27.367-64.988 79.707 22.016-15.582 66.883-43.25 91.746-30.336 12.082 6.289 17.531 20.855 16.184 43.305-.14 2.507-2.3 4.527-4.816 4.269a4.552 4.552 0 0 1-4.274-4.82c1.113-18.527-2.691-30.195-11.297-34.668-22.645-11.801-75.609 23.809-94.113 38.512a4.554 4.554 0 0 1-7.14-5.043c22.508-65.656 48.91-99.301 78.484-100.02.324-.008.648-.02.968-.02 34.13 0 62.898 43.891 78.422 73.508-21.812-114.48-123.21-134.5-124.31-134.7a4.57 4.57 0 0 1-3.664-3.699 4.552 4.552 0 0 1 2.192-4.715c46.703-27.242 85.652-32.082 115.79-14.32 68.008 40.031 65.82 179.61 65.695 185.54-.055 2.516-1.77 4.235-4.653 4.457a4.558 4.558 0 0 1-4.457-4.652c.032-1.395 2.207-140.18-61.215-177.5-25.05-14.738-57.609-11.703-96.875 8.965 31.008 9.918 116.31 48.02 124.13 168.34a4.55 4.55 0 0 1-3.539 4.73c-.34.082-.68.117-1.008.117z"/><path d="M419.07 362.45a4.24 4.24 0 0 1-1.004-.117 4.546 4.546 0 0 1-3.539-4.73c7.816-120.32 93.129-158.43 124.14-168.34-39.281-20.685-71.84-23.708-96.891-8.954-63.453 37.355-61.234 176.1-61.203 177.5a4.555 4.555 0 0 1-4.457 4.653c-2.668-.188-4.594-1.938-4.652-4.457-.125-5.922-2.313-145.5 65.69-185.54 30.138-17.762 69.103-12.934 115.8 14.32a4.547 4.547 0 0 1 2.188 4.714 4.547 4.547 0 0 1-3.656 3.692c-4.5.836-103.06 20.52-124.39 134.84 15.652-29.902 44.742-74.512 79.461-73.625 29.57.718 55.977 34.367 78.484 100.02a4.562 4.562 0 0 1-1.68 5.195 4.548 4.548 0 0 1-5.46-.152c-18.505-14.703-71.497-50.305-94.114-38.512-8.605 4.472-12.402 16.14-11.289 34.668a4.552 4.552 0 0 1-4.273 4.82c-2.453.258-4.668-1.77-4.816-4.27-1.348-22.449 4.093-37.016 16.18-43.305 24.859-12.949 69.723 14.766 91.746 30.336-19.812-52.34-41.641-79.129-64.988-79.707-.254 0-.516-.007-.77-.007-44.246 0-81.89 93.145-82.27 94.098a4.562 4.562 0 0 1-4.23 2.863z"/></g></svg>