<?xml version="1.0"?>
<svg version="1.1" xmlns="http://www.w3.org/2000/svg" viewBox="169.5 291.22 413.47 170.52" width="413.47" height="170.52"> <path d="m315.38 291.23c38.832 0 75.773 15.629 103.71 44.043l0.47266 0.47266c10.418-7.1055 22.73-11.367 35.52-11.367 22.73 0 43.098 12.312 54.934 32.203 6.6289-2.8398 13.734-4.7344 20.836-4.7344 28.887 0 52.094 24.625 52.094 54.934 0 30.781-22.258 54.934-51.148 54.934-0.94531 0-154.86-0.47266-154.86-0.47266-24.625-1.8945-39.781-18.941-39.781-44.516 0-18.469 10.418-34.098 25.574-41.203-13.262-9.9453-29.836-15.629-47.359-15.629-44.043 0-78.141 34.57-78.141 78.613 0 2.8398-1.8945 4.7344-4.7344 4.7344s-4.7344-1.8945-4.7344-4.7344c0-49.254 38.359-88.086 87.613-88.086 20.836 0 41.203 7.5781 57.305 20.836 0.47266 0.47266 0.47266 0.94531 0.94531 0.94531 1.8945-0.47266 3.7891-0.47266 6.1562-0.47266 4.2617 0 8.9961 0.94531 13.262 2.3672 0.94531-3.7891 2.3672-7.1055 3.7891-10.418l-0.47266-0.47266c-20.836-22.258-49.727-35.047-80.035-35.047-60.617 0-109.87 49.727-109.87 110.34 0 2.8398-1.8945 4.7344-4.7344 4.7344s-4.7344-1.8945-4.7344-4.7344c0-66.301 53.516-119.82 119.34-119.82 32.203 0 62.984 13.262 85.719 36.465 3.3164-5.2109 7.1055-9.4727 11.367-13.734-26.047-26.52-60.617-41.203-97.086-41.203-74.352 0-137.34 62.984-137.34 137.81 0 2.8398-1.8945 4.7344-4.7344 4.7344-2.8398 0-4.7344-1.8945-4.7344-4.7344-0.95313-79.547 66.297-146.8 145.86-146.8zm85.246 90.453c-0.47266 1.4219-1.4219 2.8398-2.3672 3.3164-0.94531 0.47266-2.8398 0.47266-4.2617 0-4.7344-2.3672-9.4727-3.7891-14.207-3.7891-17.996 0-32.676 16.102-32.676 35.52 0 9.9453 2.8398 33.152 30.781 35.047 0 0 153.91 0.47266 154.86 0.47266 23.207 0 41.676-19.891 41.676-45.465 0-25.102-18.941-45.465-42.621-45.465-7.1055 0-14.207 1.8945-20.363 5.6836-0.94531 0.47266-2.3672 0.94531-3.7891 0.47266-1.4219-0.47266-2.3672-1.4219-2.8398-2.3672-9.9453-19.418-28.414-31.258-48.777-31.258-27.473 0-50.203 20.363-55.414 47.832z" fill="#000"></path> </svg>