<?xml version="1.0"?>
<svg xmlns="http://www.w3.org/2000/svg" viewBox="162.87 195.48 426.28 361.08" width="426.28" height="361.08"><g fill="#000"><path d="M227.02 514.05V238.342h.04v-.355l-.06-.04a42.285 42.285 0 0 1 12.453-30.03c7.696-7.676 18.312-12.43 30.031-12.43h277.12v20.854a21.548 21.548 0 0 0-15.293 6.336A21.614 21.614 0 0 0 525 237.97v274.01h-.059l.02 2.07h.039a42.285 42.285 0 0 1-12.453 30.032c-7.695 7.675-18.312 12.43-30.031 12.43a42.362 42.362 0 0 1-30.051-12.43c-5.348-5.348-9.273-12.098-11.148-19.672l-203.88-.004-10.422.02zm20.859-10.398h212.99v10.379c0 5.98 2.426 11.387 6.336 15.293 3.906 3.906 9.332 6.336 15.293 6.336s11.367-2.426 15.273-6.336a21.587 21.587 0 0 0 6.336-15.273h.039v-2.07h-.04l-.003-274.03a42.227 42.227 0 0 1 5.918-21.625l-240.52-.004a21.548 21.548 0 0 0-15.293 6.336 21.549 21.549 0 0 0-6.332 15.293h-.059v.355l.04.04v13.437c.019 83.961.019 167.9.019 251.87z"></path><path d="M482.5 535.68v20.879H205.4c-11.742 0-22.355-4.754-30.051-12.453-7.7-7.695-12.453-18.332-12.453-30.07v-10.418h297.98v10.418c0 5.98 2.426 11.387 6.336 15.293 3.906 3.906 9.332 6.352 15.289 6.352zM578.68 248.35h-74.547l-.004-10.398a42.285 42.285 0 0 1 12.453-30.031h.04c7.694-7.695 18.311-12.43 30.011-12.43 11.742 0 22.355 4.754 30.031 12.43 7.676 7.672 12.453 18.309 12.453 30.051v10.379z"></path></g></svg>