<?xml version="1.0" encoding="UTF-8"?>
<svg version="1.1" xmlns="http://www.w3.org/2000/svg" viewBox="144.75 191.78 462.5 368.45" width="462.5" height="368.45"> <g fill="#000"> <path d="m569.16 549.1h-136.87v-104.67c0-17.5-14.238-31.738-31.738-31.738h-19v-82.016c23.012-2.7539 40.922-22.363 40.922-46.109 0-25.625-20.844-46.469-46.469-46.469s-46.469 20.844-46.469 46.469c0 23.738 17.914 43.355 40.922 46.109v82.02h-19.004c-17.5 0-31.738 14.238-31.738 31.738v104.67l-136.87-0.003907c-3.0625 0-5.5508 2.4844-5.5508 5.5508 0 3.0625 2.4844 5.5508 5.5508 5.5508h386.3c3.0625 0 5.5508-2.4844 5.5508-5.5508 0-3.0625-2.4805-5.5508-5.543-5.5508zm-228.53-264.53c0-19.504 15.871-35.371 35.371-35.371s35.371 15.871 35.371 35.371-15.871 35.371-35.371 35.371c-19.496 0-35.371-15.871-35.371-35.371zm-9.8164 159.86c0-11.379 9.2578-20.637 20.637-20.637h49.113c11.379 0 20.637 9.2578 20.637 20.637v104.67h-90.387z"/> <path d="m281.38 317.86c1.4141 0 2.8398-0.53906 3.9219-1.6289 2.168-2.168 2.168-5.6836 0-7.8516-6.3633-6.3633-9.8711-14.82-9.8711-23.82 0-8.9961 3.5078-17.457 9.8711-23.82 2.168-2.168 2.168-5.6836 0-7.8516-2.168-2.168-5.6836-2.168-7.8516 0-8.4648 8.457-13.121 19.707-13.121 31.664 0 11.957 4.6602 23.207 13.121 31.664 1.0859 1.0938 2.5078 1.6445 3.9297 1.6445z"/> <path d="m233.91 342.95c1.4141 0 2.8398-0.53906 3.9219-1.6289 2.168-2.168 2.168-5.6836 0-7.8516-13.066-13.066-20.262-30.434-20.262-48.91s7.1992-35.852 20.262-48.91c2.168-2.168 2.168-5.6836 0-7.8516-2.168-2.168-5.6836-2.168-7.8516 0-15.168 15.16-23.516 35.32-23.516 56.762 0 21.445 8.3477 41.602 23.516 56.762 1.0859 1.0898 2.5 1.6289 3.9297 1.6289z"/> <path d="m186.44 377.33c1.4141 0 2.8398-0.53906 3.9219-1.6289 2.168-2.168 2.168-5.6836 0-7.8516-22.25-22.242-34.496-51.82-34.496-83.285s12.246-61.047 34.496-83.293c2.168-2.168 2.168-5.6836 0-7.8516s-5.6836-2.168-7.8516 0c-24.344 24.344-37.754 56.711-37.754 91.141 0 34.422 13.41 66.789 37.754 91.133 1.0898 1.0898 2.5039 1.6367 3.9297 1.6367z"/> <path d="m466.7 316.23c1.082 1.082 2.5 1.6289 3.9219 1.6289 1.4141 0 2.8398-0.53906 3.9219-1.6211 8.4648-8.457 13.129-19.707 13.129-31.672 0-11.965-4.668-23.211-13.129-31.672-2.1758-2.168-5.6836-2.1602-7.8516 0-2.168 2.168-2.168 5.6836 0 7.8516 6.3633 6.3555 9.8789 14.812 9.8789 23.812 0 8.9961-3.5156 17.457-9.8789 23.812-2.1602 2.1758-2.1602 5.6836 0.007813 7.8594z"/> <path d="m514.17 341.33c1.082 1.082 2.5 1.6289 3.9219 1.6289s2.8398-0.53906 3.9219-1.6289c15.168-15.16 23.516-35.32 23.516-56.762 0-21.445-8.3477-41.602-23.516-56.762-2.168-2.168-5.6836-2.168-7.8516 0-2.168 2.168-2.168 5.6836 0 7.8516 13.066 13.066 20.262 30.434 20.262 48.91 0 18.477-7.1992 35.852-20.262 48.91-2.1602 2.1758-2.1602 5.6836 0.007813 7.8516z"/> <path d="m561.64 375.71c1.082 1.082 2.5 1.6289 3.9219 1.6289s2.8398-0.53906 3.9219-1.6289c24.344-24.344 37.754-56.711 37.754-91.133 0-34.43-13.41-66.797-37.754-91.141-2.168-2.168-5.6836-2.168-7.8516 0-2.168 2.168-2.168 5.6836 0 7.8516 22.25 22.25 34.496 51.828 34.496 83.293s-12.246 61.039-34.496 83.285c-2.1602 2.1602-2.1602 5.6758 0.007813 7.8438z"/> </g> </svg>