<?xml version="1.0"?>
<svg version="1.1" xmlns="http://www.w3.org/2000/svg" viewBox="186.05 167.53 379.88 416.93" width="379.88" height="416.93"> <path d="m376.02 167.55c-65.242 0-118.31 53.07-118.31 118.31 0 46.578 27.055 86.973 66.273 106.27-79.543 22.664-137.9 95.953-137.9 182.7-0.035157 2.5352 0.94531 4.9766 2.7266 6.7812 1.7812 1.8086 4.2109 2.8242 6.7461 2.8242s4.9648-1.0156 6.7461-2.8242c1.7773-1.8047 2.7617-4.2461 2.7266-6.7812 0-92.125 72.578-167.06 163.76-170.84 2.3945 0.14844 4.8047 0.22656 7.2344 0.22656 2.4297 0 4.8398-0.082031 7.2344-0.22656 91.184 3.7812 163.71 78.715 163.71 170.84h-0.003906c-0.035156 2.5352 0.94531 4.9766 2.7266 6.7812 1.7812 1.8086 4.2109 2.8242 6.7461 2.8242 2.5352 0 4.9648-1.0156 6.7461-2.8242 1.7773-1.8047 2.7617-4.2461 2.7266-6.7812 0-86.742-58.324-160.04-137.85-182.7 39.219-19.301 66.273-59.695 66.273-106.27 0-65.238-53.07-118.31-118.31-118.31zm0 18.941c55.008 0 99.367 44.359 99.367 99.367 0 52.641-40.633 95.57-92.332 99.168-2.3359-0.085938-4.6836-0.13281-7.0391-0.13281s-4.7031 0.046874-7.0391 0.13281c-51.699-3.5977-92.332-46.527-92.332-99.168 0-55.008 44.363-99.367 99.371-99.367z" fill="#000"></path> </svg>