<?xml version="1.0"?>
<svg version="1.1" xmlns="http://www.w3.org/2000/svg" viewBox="142.25 154 467.6 441.27" width="467.6" height="441.27"> <path d="m376.03 154.03c18.18 0 34.891 9.9805 43.516 25.988l184.38 342.41c8.2344 15.316 7.8164 33.832-1.1016 48.758-8.918 14.926-25.023 24.07-42.418 24.078h-368.75c-17.387-0.007812-33.492-9.1523-42.41-24.078-8.918-14.926-9.3359-33.441-1.1016-48.766l184.38-342.4c8.625-16.004 25.336-25.984 43.516-25.984zm0 29.598c-7.293 0-14 4.0039-17.457 10.422l-184.37 342.39c-3.3008 6.1445-3.1328 13.574 0.44531 19.562s10.039 9.6602 17.008 9.6602h368.73c6.9766 0 13.438-3.6719 17.016-9.6602s3.7461-13.418 0.44922-19.555l-184.37-342.39c-3.457-6.4219-10.164-10.426-17.457-10.426zm0 293.24c16.348 0 29.598 13.25 29.598 29.598 0 16.348-13.25 29.598-29.598 29.598s-29.598-13.25-29.598-29.598c0-16.348 13.25-29.598 29.598-29.598zm0-207.19c7.2656 0 13.309 5.2344 14.559 12.137l0.24219 2.6602v148c0 8.1719-6.6289 14.797-14.801 14.797-7.2656 0-13.309-5.2344-14.562-12.137l-0.23828-2.6602v-148c0-8.1719 6.625-14.797 14.801-14.797z" fill="#000"></path> </svg>